# xmcd
#
# Track frame offsets:
#	150
#	16348
#	36783
#	56671
#	74853
#	94505
#	116890
#	136913
#	157576
#	172894
#
# Disc length: 2596 seconds
#
# Revision: 1
# Processed by: cddbd v1.5.1PL2 Copyright (c) Steve Scherf et al.
# Submitted via: audiograbber 1.83.01
#
DISCID=7e0a220a
DTITLE=Various Artist - The Best of 90s R&B disc2
DYEAR=2004
DGENRE=R&B
TTITLE0=B-Rock and the Bizz - MYBABYDADDY
TTITLE1=Sylk-E Fine - Romeo and Juilet
TTITLE2=Az Yet - Last Night
TTITLE3=Blu Cantrell - Hit 'em Up Style (Oops)
TTITLE4=Tony Rich Project - Nobody Knows
TTITLE5=Toni Braxton - Love Shoulda Brought You Home
TTITLE6=Deborah Cox - Sentimental
TTITLE7=Rome - I Belong to You (Every Time I See Your Face)
TTITLE8=Shanice - When I Close my Eyes
TTITLE9=Tyrese - Sweet Lady
EXTD=
EXTT0=
EXTT1=
EXTT2=
EXTT3=
EXTT4=
EXTT5=
EXTT6=
EXTT7=
EXTT8=
EXTT9=
PLAYORDER=
